<?xml version="1.0" encoding="UTF-8"?>
<svg width="21px" height="26px" viewBox="0 0 21 26" version="1.1" xmlns="http://www.w3.org/2000/svg" xmlns:xlink="http://www.w3.org/1999/xlink">
    <!-- Generator: Sketch 51.2 (57519) - http://www.bohemiancoding.com/sketch -->
    <title>Goava-G-logo</title>
    <desc>Created with Sketch.</desc>
    <defs></defs>
    <g id="Page-1" stroke="none" stroke-width="1" fill="none" fill-rule="evenodd">
        <g id="Goava-NewWeb-HD-Approved" transform="translate(-164.000000, -3021.000000)" fill="#F4D4B7">
            <g id="Group-9" transform="translate(0.000000, 2976.000000)">
                <g id="Group-15" transform="translate(164.000000, 45.000000)">
                    <path d="M11.5018,16.9766 C10.3898,16.9766 9.4568,16.1086 9.3768,14.9996 C9.3358,14.4126 9.5338,13.8516 9.9368,13.4196 C10.3528,12.9736 10.9468,12.7166 11.5678,12.7166 L11.6768,12.7166 C12.8558,12.7166 13.8158,13.6766 13.8158,14.8556 L13.8148,16.9766 L11.5018,16.9766 Z M14.2548,2.3666 C13.5558,1.6906 12.6928,1.1446 11.6908,0.7426 C10.6898,0.3406 9.5898,0.1376 8.4218,0.1376 C7.2168,0.1376 6.1308,0.3476 5.1928,0.7636 C4.2578,1.1776 3.4408,1.7426 2.7658,2.4416 C2.0918,3.1396 1.5418,3.9536 1.1278,4.8616 C0.7168,5.7656 0.4378,6.7246 0.2968,7.7096 C0.1918,8.4196 0.1158,9.2476 0.0698,10.1716 C0.0228,11.0916 -0.0002,12.0556 -0.0002,13.0376 C-0.0002,14.0176 0.0258,14.9876 0.0778,15.9206 C0.1298,16.8576 0.2038,17.6896 0.2958,18.3936 C0.6018,20.7346 1.4878,22.6016 2.9298,23.9436 C4.3768,25.2896 6.2238,25.9716 8.4218,25.9716 C9.5068,25.9716 10.5458,25.8006 11.5088,25.4656 C12.4778,25.1276 13.3418,24.6226 14.0768,23.9646 C14.8128,23.3046 15.4058,22.4956 15.8398,21.5596 C16.0908,21.0196 16.2728,20.4246 16.3788,19.7896 L16.4018,19.6556 L19.8308,19.6556 C20.4148,19.6556 20.8888,19.1816 20.8888,18.5976 L20.8888,18.0166 C20.8888,17.4426 20.4228,16.9766 19.8498,16.9766 L16.4978,16.9766 L16.4948,14.8556 C16.4948,12.1986 14.3338,10.0376 11.6768,10.0376 L11.5018,10.0376 C8.9558,10.0376 6.8468,12.0276 6.7008,14.5676 C6.6248,15.8906 7.0848,17.1496 7.9948,18.1146 C8.9198,19.0946 10.2318,19.6556 11.5948,19.6556 L13.6038,19.6556 L13.4928,19.9626 C13.2798,20.5356 12.9448,21.0696 12.4968,21.5506 C12.0478,22.0326 11.4768,22.4356 10.7998,22.7496 C10.1268,23.0616 9.3268,23.2196 8.4218,23.2196 C7.4968,23.2196 6.7138,23.0576 6.0948,22.7366 C5.4688,22.4126 4.9398,22.0036 4.5248,21.5226 C4.1078,21.0396 3.7878,20.5096 3.5738,19.9446 C3.3568,19.3716 3.2128,18.8256 3.1458,18.3196 C3.0328,17.6086 2.9488,16.7866 2.8978,15.8756 C2.8468,14.9616 2.8208,14.0126 2.8208,13.0546 C2.8208,12.0966 2.8468,11.1466 2.8978,10.2326 C2.9498,9.3206 3.0328,8.4956 3.1478,7.7786 C3.2348,7.1716 3.4128,6.5616 3.6728,5.9676 C3.9318,5.3806 4.2848,4.8486 4.7248,4.3866 C5.1608,3.9286 5.6878,3.5596 6.2898,3.2916 C6.8898,3.0236 7.6068,2.8886 8.4218,2.8886 C9.2408,2.8886 9.9818,3.0146 10.6248,3.2616 C11.2668,3.5086 11.8248,3.8496 12.2848,4.2766 C12.7408,4.6996 13.0958,5.2146 13.3398,5.8076 C13.5858,6.4036 13.7108,7.0556 13.7108,7.7466 L13.7108,7.8846 C13.7108,8.1436 13.8088,8.3766 13.9928,8.5596 C14.1768,8.7406 14.4008,8.8366 14.6428,8.8366 L15.5658,8.8366 C15.8218,8.8366 16.0518,8.7356 16.2298,8.5436 C16.4048,8.3556 16.4968,8.1276 16.4968,7.8846 L16.4968,7.7466 C16.4968,6.7046 16.2978,5.7056 15.9038,4.7806 C15.5098,3.8556 14.9558,3.0436 14.2548,2.3666 Z" id="Goava-G-logo"></path>
                </g>
            </g>
        </g>
    </g>
</svg>