<?xml version="1.0" standalone="no"?>
<!DOCTYPE svg PUBLIC "-//W3C//DTD SVG 20010904//EN"
 "http://www.w3.org/TR/2001/REC-SVG-20010904/DTD/svg10.dtd">
<svg version="1.0" xmlns="http://www.w3.org/2000/svg"
 width="600.000000pt" height="600.000000pt" viewBox="0 0 600.000000 600.000000"
 preserveAspectRatio="xMidYMid meet">

<g transform="translate(0.000000,600.000000) scale(0.100000,-0.100000)"
fill="#000000" stroke="none">
<path d="M0 3000 l0 -3000 3000 0 3000 0 0 1548 -1 1547 -332 -338 -332 -338
-1375 3 c-1371 3 -1375 3 -1420 24 -65 30 -107 69 -138 128 l-27 51 -3 1688
-2 1687 -80 0 -80 0 0 -1673 c0 -1804 -2 -1725 51 -1829 44 -86 134 -163 239
-205 42 -17 129 -18 1364 -23 l1318 -5 -392 -397 -392 -398 -988 0 c-840 0
-1000 2 -1067 15 -405 77 -759 381 -881 755 -54 164 -52 104 -52 2001 l0 1759
-80 0 -80 0 0 -1762 c0 -1954 -3 -1851 66 -2058 138 -412 471 -709 939 -837
l100 -28 943 -3 943 -3 -373 -379 -373 -380 -604 0 c-659 0 -708 3 -927 60
-732 189 -1275 739 -1434 1450 -56 251 -54 154 -57 2123 l-4 1817 -234 0 -235
0 0 -3000z"/>
<path d="M3180 4620 l0 -1380 1410 0 1410 0 0 1380 0 1380 -1410 0 -1410 0 0
-1380z"/>
</g>
</svg>
