<?xml version="1.0" standalone="no"?>
<!DOCTYPE svg PUBLIC "-//W3C//DTD SVG 20010904//EN"
 "http://www.w3.org/TR/2001/REC-SVG-20010904/DTD/svg10.dtd">
<svg version="1.0" xmlns="http://www.w3.org/2000/svg"
 width="1311.000000pt" height="1629.000000pt" viewBox="0 0 1311.000000 1629.000000"
 preserveAspectRatio="xMidYMid meet">

<g transform="translate(0.000000,1629.000000) scale(0.100000,-0.100000)"
fill="#000000" stroke="none">
<path d="M5428 16248 c-14 -38 -105 -257 -463 -1123 -380 -918 -794 -1920
-951 -2303 -57 -139 -102 -257 -99 -262 3 -6 418 -10 984 -10 778 0 980 2 988
12 6 7 163 473 349 1036 186 562 340 1022 343 1022 4 0 160 -466 349 -1035
l343 -1035 994 0 c547 0 995 3 995 6 0 3 -102 251 -226 552 -124 301 -296 716
-381 922 -85 206 -197 476 -248 600 -51 124 -167 405 -258 625 -91 220 -224
542 -296 715 l-130 315 -1138 3 -1139 2 -16 -42z"/>
<path d="M3818 12348 c-26 -62 -171 -414 -323 -783 -153 -368 -335 -809 -405
-980 -129 -313 -279 -676 -563 -1365 -85 -206 -153 -378 -150 -382 5 -10 2255
-10 2269 0 11 6 804 2385 804 2410 0 6 -123 105 -272 220 -1078 825 -1297 992
-1305 992 -5 0 -30 -51 -55 -112z"/>
<path d="M8489 11857 l-785 -601 103 -316 c57 -173 237 -718 400 -1210 l298
-895 1143 -2 c789 -2 1142 1 1142 8 0 6 -32 88 -71 182 -96 232 -228 552 -299
722 -32 77 -129 311 -215 520 -86 209 -195 470 -240 580 -89 215 -357 862
-462 1115 -35 85 -96 233 -135 328 -38 94 -75 172 -82 171 -6 0 -365 -271
-797 -602z"/>
<path d="M8264 7390 l-9 -140 26 0 c22 0 28 7 43 57 35 109 58 123 209 123
l87 0 0 -414 c0 -399 -1 -414 -20 -439 -16 -20 -33 -27 -75 -32 -49 -7 -55
-10 -55 -31 l0 -24 220 0 220 0 0 24 c0 21 -6 24 -55 31 -42 5 -59 12 -75 32
-19 25 -20 40 -20 440 l0 415 111 -4 c110 -3 111 -3 139 -35 16 -17 36 -57 46
-87 15 -49 21 -56 44 -56 l26 0 -8 78 c-3 42 -7 105 -7 140 -1 70 -13 78 -58
42 -25 -19 -41 -20 -363 -20 -322 0 -338 1 -363 20 -49 39 -53 32 -63 -120z"/>
<path d="M6934 7492 c-116 -40 -184 -133 -184 -251 0 -129 58 -203 236 -301
125 -69 187 -125 204 -184 24 -87 -11 -174 -83 -206 -126 -58 -261 15 -318
170 -18 51 -23 56 -45 52 -13 -2 -24 -11 -24 -19 0 -39 33 -219 42 -231 6 -7
41 -22 79 -33 55 -17 89 -20 166 -17 112 4 182 30 242 89 113 113 107 306 -12
403 -23 19 -89 59 -146 91 -57 31 -119 68 -137 82 -65 49 -93 124 -73 197 20
75 76 116 159 116 86 0 135 -38 175 -136 20 -49 28 -59 47 -56 12 1 23 4 24 5
4 4 -24 208 -29 213 -3 3 -29 12 -58 20 -75 19 -202 17 -265 -4z"/>
<path d="M11451 7495 c-214 -60 -355 -246 -368 -485 -9 -162 36 -289 142 -396
101 -102 205 -144 361 -144 246 0 439 152 494 388 15 66 16 210 1 275 -35 150
-156 291 -301 348 -73 29 -249 36 -329 14z m254 -78 c143 -73 225 -239 225
-457 0 -193 -69 -336 -193 -402 -34 -19 -58 -23 -127 -23 -72 0 -92 4 -135 27
-61 32 -135 108 -168 175 -89 175 -82 436 16 579 35 51 108 107 161 124 56 17
166 6 221 -23z"/>
<path d="M40 7466 c0 -20 6 -25 44 -30 85 -13 80 6 87 -348 4 -182 12 -332 18
-358 28 -107 91 -183 191 -229 72 -33 219 -42 302 -17 116 34 199 118 239 244
19 59 22 101 28 352 5 197 11 292 20 308 13 25 66 52 101 52 15 0 20 7 20 25
l0 25 -185 0 -185 0 0 -24 c0 -21 6 -25 50 -31 101 -14 108 -37 109 -340 0
-274 -24 -387 -100 -464 -51 -51 -102 -71 -185 -71 -95 0 -164 34 -211 104
-60 89 -66 123 -71 416 -4 310 -1 334 56 350 20 5 45 10 55 10 11 0 17 8 17
25 l0 25 -200 0 -200 0 0 -24z"/>
<path d="M1310 7466 c0 -20 7 -25 37 -31 52 -10 87 -29 109 -62 18 -26 19 -50
19 -378 -1 -395 -4 -417 -61 -441 -18 -8 -45 -14 -59 -14 -20 0 -25 -5 -25
-25 l0 -25 185 0 185 0 0 25 c0 20 -5 25 -25 25 -39 0 -92 26 -107 52 -10 17
-14 101 -16 348 -2 179 0 321 5 317 4 -4 150 -182 323 -395 260 -320 320 -388
343 -390 l27 -3 1 413 c0 227 4 435 8 462 10 58 35 83 92 92 33 6 39 10 39 30
l0 24 -185 0 -185 0 0 -25 c0 -19 5 -25 23 -25 52 0 97 -21 114 -53 15 -28 18
-71 21 -347 l3 -315 -22 25 c-11 14 -154 186 -317 382 l-297 358 -117 0 c-118
0 -118 0 -118 -24z"/>
<path d="M2640 7466 c0 -21 6 -25 49 -31 90 -12 86 9 86 -445 0 -455 4 -434
-86 -446 -43 -6 -49 -9 -49 -30 l0 -24 205 0 205 0 0 24 c0 21 -6 24 -49 30
-88 12 -86 1 -89 375 -4 372 1 464 28 491 10 10 39 22 64 25 40 6 46 10 46 31
l0 24 -205 0 -205 0 0 -24z"/>
<path d="M3290 7466 c0 -21 6 -25 42 -31 82 -14 88 -28 320 -645 54 -146 104
-277 110 -292 8 -21 17 -28 37 -28 25 0 30 10 95 183 38 100 117 299 175 442
119 291 142 327 219 340 36 6 42 10 42 31 l0 24 -180 0 -180 0 0 -24 c0 -21 6
-25 43 -31 59 -10 77 -22 77 -50 0 -34 -228 -654 -249 -677 -6 -7 -172 416
-240 612 -34 97 -32 106 35 116 38 5 44 10 44 30 l0 24 -195 0 -195 0 0 -24z"/>
<path d="M4570 7466 c0 -21 6 -25 46 -31 88 -13 84 9 84 -439 0 -379 -1 -394
-20 -419 -16 -20 -33 -27 -75 -32 -49 -7 -55 -10 -55 -31 l0 -24 375 0 c206 0
375 2 375 3 0 2 11 55 25 117 14 62 25 117 25 122 0 4 -11 8 -24 8 -20 0 -31
-13 -63 -72 -59 -109 -67 -113 -233 -113 -193 0 -184 -12 -188 230 l-3 185
118 0 c136 0 156 -8 174 -70 10 -32 17 -40 36 -40 l23 0 0 150 0 150 -24 0
c-19 0 -25 -7 -30 -34 -4 -19 -15 -45 -25 -58 -18 -21 -28 -23 -145 -27 l-126
-3 2 193 3 194 118 3 c182 4 214 -12 248 -125 10 -35 17 -43 36 -43 21 0 23 4
23 54 0 29 -3 81 -6 115 l-7 61 -343 0 -344 0 0 -24z"/>
<path d="M5600 7466 c0 -21 6 -25 49 -31 90 -12 86 9 86 -445 0 -455 4 -434
-86 -446 -43 -6 -49 -9 -49 -30 l0 -24 205 0 205 0 0 24 c0 21 -6 24 -49 30
-81 11 -85 21 -89 212 l-4 164 54 0 c29 0 64 -6 77 -13 13 -6 63 -75 111 -151
145 -232 185 -266 321 -274 l79 -5 0 27 c0 15 -6 26 -13 26 -30 0 -98 63 -164
152 -59 79 -183 270 -183 281 0 3 25 21 55 41 105 69 150 172 127 284 -14 67
-44 114 -94 147 -70 47 -131 55 -395 55 l-243 0 0 -24z m485 -62 c25 -13 51
-39 70 -69 26 -43 30 -57 29 -124 0 -154 -82 -231 -245 -231 l-69 0 0 203 c0
253 -1 251 104 245 46 -2 85 -10 111 -24z"/>
<path d="M7580 7466 c0 -20 6 -24 48 -30 93 -12 87 18 90 -418 2 -211 0 -398
-3 -416 -5 -26 -14 -37 -40 -48 -19 -8 -48 -14 -65 -14 -25 0 -30 -4 -30 -25
l0 -25 210 0 210 0 0 25 c0 21 -5 25 -30 25 -17 0 -46 6 -65 14 -26 11 -35 22
-40 48 -3 18 -5 205 -3 416 3 436 -3 406 90 418 42 6 48 10 48 30 l0 24 -210
0 -210 0 0 -24z"/>
<path d="M9390 7466 c0 -19 7 -25 35 -30 19 -4 48 -18 64 -32 25 -21 214 -332
275 -451 13 -26 16 -64 16 -198 0 -192 -3 -199 -90 -211 -44 -6 -50 -9 -50
-30 l0 -24 215 0 215 0 0 24 c0 21 -6 24 -54 30 -87 11 -90 18 -94 216 l-3
167 46 89 c84 161 199 345 236 379 23 20 52 35 78 40 35 6 41 10 41 31 l0 24
-170 0 -170 0 0 -25 c0 -14 6 -25 13 -25 6 0 29 -5 50 -11 29 -8 37 -15 37
-33 0 -23 -74 -175 -155 -320 l-37 -67 -17 28 c-77 126 -201 353 -201 366 0
11 14 20 45 28 38 10 45 15 45 35 l0 24 -185 0 -185 0 0 -24z"/>
<path d="M12370 7466 c0 -20 6 -25 44 -30 86 -13 81 15 84 -418 2 -211 0 -398
-3 -416 -5 -26 -14 -37 -40 -48 -19 -8 -46 -14 -60 -14 -20 0 -25 -5 -25 -25
l0 -25 210 0 210 0 0 25 c0 21 -5 25 -27 25 -53 0 -99 19 -111 46 -8 16 -12
88 -12 199 l0 175 108 -1 c145 0 173 -11 192 -71 13 -42 18 -48 43 -48 l27 0
0 150 0 150 -30 0 c-24 0 -30 -4 -30 -20 0 -29 -26 -76 -45 -84 -9 -3 -73 -6
-141 -6 l-124 0 2 198 3 197 122 3 c157 3 184 -6 218 -80 14 -29 25 -61 25
-70 0 -22 11 -28 38 -21 20 5 22 10 17 52 -2 25 -7 76 -11 114 l-6 67 -339 0
-339 0 0 -24z"/>
<path d="M96 5268 c-2 -24 -12 -160 -21 -303 -9 -143 -18 -286 -22 -318 l-6
-58 58 3 58 3 39 128 c57 189 100 267 172 304 57 30 175 42 399 43 l217 0 0
-1052 c0 -676 -4 -1069 -11 -1097 -23 -103 -92 -145 -268 -164 l-111 -11 0
-53 0 -53 565 0 565 0 0 53 0 53 -107 11 c-172 19 -226 45 -267 133 -21 45
-21 50 -24 1113 l-3 1067 223 0 c251 0 331 -10 401 -47 83 -46 148 -172 196
-378 l12 -50 57 5 c67 6 62 -20 43 235 -7 94 -16 238 -19 320 l-7 150 -41 3
c-37 3 -45 -1 -63 -27 -12 -16 -41 -39 -64 -50 -43 -21 -52 -21 -905 -21 -950
0 -901 -3 -959 64 -26 28 -40 36 -67 36 -33 0 -35 -2 -40 -42z"/>
<path d="M9745 5249 l-60 -19 -425 -1077 c-233 -593 -446 -1121 -472 -1174
-74 -149 -143 -199 -311 -224 l-47 -7 0 -54 0 -54 430 0 430 0 0 54 0 53 -62
7 c-160 17 -228 58 -228 136 0 53 69 277 195 633 l17 47 422 0 422 0 48 -132
c119 -327 186 -532 186 -567 0 -26 -7 -44 -22 -58 -24 -23 -102 -48 -180 -59
l-48 -6 0 -54 0 -54 485 0 485 0 0 54 0 53 -60 7 c-149 17 -228 69 -293 194
-36 69 -201 516 -606 1650 -127 353 -234 648 -238 655 -7 11 -19 10 -68 -4z
m79 -997 c91 -266 166 -490 166 -498 0 -12 -52 -14 -355 -14 -244 0 -355 3
-355 11 0 5 57 164 126 352 69 188 150 411 181 495 31 84 59 149 63 145 4 -4
82 -225 174 -491z"/>
<path d="M12281 5259 c-203 -24 -375 -103 -501 -231 -186 -189 -239 -491 -130
-735 85 -189 216 -302 590 -508 280 -154 391 -239 456 -351 83 -141 84 -343 2
-496 -78 -147 -246 -228 -448 -215 -268 18 -464 200 -581 537 -18 52 -33 96
-34 98 -4 5 -99 -20 -108 -28 -12 -10 71 -536 94 -596 5 -15 35 -33 95 -58
175 -73 340 -101 548 -93 269 10 458 87 621 252 83 83 136 170 172 280 22 68
26 98 27 205 1 147 -20 233 -84 340 -99 167 -220 259 -599 459 -211 111 -277
156 -358 237 -177 180 -189 471 -26 645 87 93 204 135 357 127 227 -13 365
-142 457 -427 19 -61 32 -86 43 -85 57 3 73 5 85 13 19 12 -43 530 -66 548
-23 18 -257 72 -363 83 -108 11 -145 11 -249 -1z"/>
<path d="M3002 5153 l3 -58 77 -7 c150 -14 202 -42 235 -126 17 -44 18 -103
18 -1027 0 -1073 1 -1045 -59 -1104 -42 -40 -100 -60 -223 -74 l-103 -11 0
-53 0 -53 954 0 954 0 31 133 c18 72 48 210 67 306 39 188 39 191 -18 191 -14
0 -34 3 -42 6 -12 5 -19 -3 -28 -27 -22 -65 -127 -264 -165 -314 -107 -139
-237 -173 -623 -162 -222 6 -277 18 -327 69 -69 71 -68 62 -71 581 l-3 469
298 -5 c191 -2 311 -8 335 -16 79 -25 123 -90 148 -218 l13 -63 58 0 59 0 0
375 0 375 -59 0 -59 0 -7 -45 c-9 -63 -42 -155 -63 -178 -54 -60 -167 -77
-519 -77 l-203 0 0 495 c0 488 0 495 21 516 20 20 27 21 342 17 299 -4 327 -6
389 -26 48 -16 75 -32 98 -59 54 -61 114 -201 144 -335 6 -26 8 -27 54 -21 26
3 51 9 56 14 9 8 -6 363 -20 512 l-6 57 -879 0 -880 0 3 -57z"/>
<path d="M5687 5203 c-13 -12 -8 -103 6 -107 6 -2 48 -9 92 -15 123 -18 214
-67 290 -159 33 -39 192 -282 353 -538 l292 -467 -111 -171 c-286 -440 -532
-781 -618 -859 -80 -71 -187 -114 -328 -133 l-53 -7 0 -53 0 -54 455 0 455 0
0 53 0 53 -75 12 c-94 15 -139 33 -160 66 -16 24 -16 29 -1 72 38 112 506 892
527 878 23 -14 543 -868 553 -908 15 -59 -42 -94 -178 -111 l-56 -7 0 -54 0
-54 520 0 520 0 0 53 0 53 -96 16 c-165 28 -260 92 -379 253 -82 111 -685
1053 -685 1069 0 4 76 121 169 261 429 644 485 698 766 739 l80 12 3 57 3 57
-451 0 -451 0 3 -57 3 -57 71 -12 c144 -24 179 -60 147 -149 -32 -85 -411
-715 -431 -715 -4 0 -19 19 -33 43 -14 23 -82 130 -151 237 -199 311 -290 468
-292 502 -2 43 33 65 129 81 l80 13 3 57 3 57 -484 0 c-266 0 -487 -3 -490 -7z"/>
<path d="M8666 1323 c-3 -27 -8 -100 -11 -163 -4 -63 -9 -123 -11 -132 -4 -15
1 -18 29 -18 35 0 35 0 60 83 34 107 61 134 148 148 36 5 103 9 149 7 l85 -3
3 -470 c2 -259 0 -503 -3 -544 -8 -86 -29 -116 -91 -126 -22 -3 -54 -8 -71
-11 -29 -4 -33 -9 -33 -34 l0 -30 285 0 285 0 0 30 c0 31 7 28 -103 45 -47 7
-75 30 -87 73 -6 23 -10 229 -10 555 l0 517 99 0 c54 0 123 -4 152 -10 72 -13
108 -54 139 -156 22 -74 22 -75 53 -72 18 2 31 8 30 14 -1 6 -5 76 -8 155 -8
180 -10 189 -37 189 -12 0 -32 -10 -46 -22 l-24 -23 -443 0 -443 0 -24 23
c-14 12 -34 22 -45 22 -18 0 -22 -8 -27 -47z"/>
<path d="M652 1340 c-12 -5 -27 -22 -33 -37 -5 -16 -107 -273 -226 -572 -152
-383 -224 -553 -245 -576 -27 -32 -53 -44 -121 -59 -22 -5 -27 -12 -27 -36 l0
-30 220 0 220 0 0 29 c0 25 -5 30 -30 35 -17 3 -44 9 -60 12 -17 3 -37 16 -45
28 -13 19 -13 29 0 77 12 48 49 159 85 257 l12 32 207 0 206 0 58 -162 c31
-90 57 -173 57 -184 0 -26 -16 -40 -55 -49 -63 -14 -65 -16 -65 -46 l0 -29
245 0 245 0 0 29 c0 27 -4 30 -52 41 -71 15 -93 31 -124 92 -21 41 -185 489
-397 1083 -25 72 -35 81 -75 65z m47 -500 c44 -129 81 -238 81 -242 0 -5 -76
-8 -170 -8 -93 0 -170 3 -170 8 0 10 173 483 175 480 2 -2 39 -109 84 -238z"/>
<path d="M7610 1336 c-296 -63 -496 -240 -556 -493 -22 -90 -22 -258 -1 -346
33 -135 116 -264 221 -344 209 -158 472 -190 844 -103 l87 20 -3 225 c-4 254
-3 256 77 270 37 6 41 10 41 36 l0 29 -255 0 -255 0 0 -29 c0 -28 1 -29 69
-36 86 -9 128 -32 136 -78 4 -18 5 -99 3 -179 -3 -139 -4 -148 -27 -172 -34
-36 -109 -56 -205 -56 -208 0 -373 103 -465 291 -57 117 -75 192 -75 324 0
250 101 434 288 525 168 82 386 70 499 -29 39 -35 93 -132 103 -187 5 -26 11
-34 28 -34 43 0 45 7 30 160 -8 80 -16 150 -18 156 -2 6 -51 21 -108 34 -129
28 -360 36 -458 16z"/>
<path d="M10602 1335 c-129 -29 -266 -113 -348 -213 -55 -67 -117 -191 -141
-282 -23 -88 -23 -264 0 -350 84 -314 350 -507 672 -487 277 17 489 178 581
442 26 75 28 91 29 240 0 149 -2 165 -27 233 -72 198 -218 342 -408 404 -84
27 -267 34 -358 13z m239 -81 c149 -43 257 -165 319 -359 31 -96 39 -325 16
-435 -35 -163 -126 -293 -244 -348 -49 -23 -70 -27 -153 -27 -90 0 -99 2 -171
38 -133 65 -232 198 -280 376 -28 102 -30 316 -5 411 48 176 130 281 264 336
70 28 173 32 254 8z"/>
<path d="M1570 1292 c0 -29 2 -30 63 -41 72 -12 93 -32 102 -94 3 -23 5 -256
3 -517 -2 -360 -6 -480 -16 -497 -12 -22 -50 -36 -124 -48 -34 -5 -38 -9 -38
-35 l0 -30 265 0 265 0 0 30 c0 26 -4 30 -37 35 -74 11 -108 25 -123 47 -12
18 -16 68 -18 237 l-4 213 74 -3 c94 -5 117 -20 176 -116 120 -194 224 -343
259 -372 59 -48 114 -69 214 -82 75 -9 93 -8 100 3 18 27 9 48 -26 62 -50 21
-136 106 -210 207 -60 82 -210 314 -221 342 -3 9 19 29 60 56 131 84 181 176
174 322 -3 72 -9 94 -34 140 -36 63 -104 119 -178 145 -44 16 -94 19 -388 22
l-338 3 0 -29z m604 -72 c93 -45 146 -139 146 -260 0 -95 -24 -158 -85 -217
-63 -61 -96 -73 -227 -80 l-98 -6 0 267 c0 278 3 299 43 317 37 16 172 3 221
-21z"/>
<path d="M3040 1291 c0 -28 2 -30 56 -37 36 -4 65 -15 82 -29 l27 -23 3 -506
c3 -572 4 -567 -65 -585 -21 -6 -55 -13 -75 -16 -34 -5 -38 -9 -38 -35 l0 -30
449 0 c248 0 452 3 454 8 10 16 71 302 65 307 -3 3 -18 7 -32 8 -23 2 -30 -5
-48 -48 -40 -92 -85 -152 -135 -176 -41 -20 -63 -23 -167 -22 -70 0 -137 5
-159 12 -69 23 -68 10 -65 577 l3 506 27 23 c17 14 46 25 82 29 54 7 56 9 56
37 l0 29 -260 0 -260 0 0 -29z"/>
<path d="M4340 1292 c0 -27 3 -28 67 -39 117 -20 108 26 111 -551 2 -273 0
-512 -3 -530 -7 -39 -53 -72 -100 -72 -57 0 -75 -10 -75 -41 l0 -29 270 0 270
0 0 30 c0 31 5 29 -106 46 -17 2 -40 14 -50 25 -18 20 -19 46 -19 545 0 607
-9 556 108 576 64 11 67 12 67 39 l0 29 -270 0 -270 0 0 -28z"/>
<path d="M5310 1291 c0 -26 4 -29 56 -39 65 -14 104 -39 134 -87 20 -32 22
-52 27 -267 7 -322 -8 -692 -31 -736 -18 -35 -57 -57 -118 -67 -34 -5 -38 -9
-38 -35 l0 -30 240 0 240 0 0 29 c0 28 -3 29 -62 40 -35 6 -74 19 -88 29 -45
34 -51 85 -57 515 -3 218 -4 397 -1 397 3 0 193 -232 424 -515 399 -491 420
-515 451 -515 l33 0 1 503 c0 276 4 539 8 585 11 109 27 132 109 152 57 14 62
17 62 42 l0 28 -240 0 -240 0 0 -29 c0 -27 2 -29 57 -36 77 -9 111 -29 131
-73 14 -32 17 -92 20 -442 3 -353 1 -403 -11 -390 -8 8 -193 230 -411 493
l-397 477 -149 0 -150 0 0 -29z"/>
<path d="M11720 1291 c0 -26 4 -29 57 -40 63 -12 115 -47 140 -94 35 -64 27
-918 -8 -993 -16 -32 -65 -60 -121 -69 -34 -5 -38 -9 -38 -35 l0 -30 240 0
240 0 0 29 c0 28 -3 29 -61 40 -72 12 -106 32 -120 69 -16 40 -30 376 -27 641
l3 235 420 -517 c399 -491 421 -517 452 -517 l33 0 0 488 c1 268 5 532 10 586
11 126 24 145 108 166 57 14 62 17 62 42 l0 28 -235 0 -235 0 0 -29 c0 -28 3
-30 53 -36 68 -10 103 -28 124 -68 16 -29 18 -73 21 -442 2 -252 0 -406 -6
-400 -5 6 -190 227 -411 493 l-401 482 -150 0 -150 0 0 -29z"/>
</g>
</svg>
