<?xml version="1.0" standalone="no"?>
<!DOCTYPE svg PUBLIC "-//W3C//DTD SVG 20010904//EN"
 "http://www.w3.org/TR/2001/REC-SVG-20010904/DTD/svg10.dtd">
<svg version="1.0" xmlns="http://www.w3.org/2000/svg"
 width="5434.000000pt" height="3171.000000pt" viewBox="0 0 5434.000000 3171.000000"
 preserveAspectRatio="xMidYMid meet">

<g transform="translate(0.000000,3171.000000) scale(0.100000,-0.100000)"
fill="#000000" stroke="none">
<path d="M14423 21148 c3 -3316 1 -3187 48 -3513 139 -974 556 -1722 1254
-2245 471 -353 1090 -600 1795 -715 375 -61 626 -79 1080 -79 367 0 531 8 805
40 879 103 1602 377 2155 815 136 108 375 346 480 479 394 500 617 1080 717
1865 16 131 18 339 20 3323 l3 3182 -1290 0 -1289 0 -4 -2947 c-3 -2687 -5
-2959 -20 -3076 -35 -263 -88 -451 -168 -594 -60 -106 -206 -252 -310 -311
-149 -83 -363 -143 -624 -174 -151 -18 -802 -18 -950 0 -523 64 -798 218 -954
536 -59 119 -92 227 -120 397 -49 299 -50 377 -51 3622 l0 2547 -1290 0 -1290
0 3 -3152z"/>
<path d="M23390 23005 l0 -1295 1195 0 1195 0 0 -3560 0 -3560 1295 0 1295 0
0 3560 0 3560 1193 2 1192 3 0 1290 0 1290 -3682 3 -3683 2 0 -1295z"/>
<path d="M32950 24223 c-324 -778 -1964 -4754 -1967 -4770 l-5 -23 1289 0
1289 0 448 1350 c246 743 449 1350 451 1350 3 0 206 -607 452 -1350 l447
-1350 1294 0 1294 0 -5 23 c-2 12 -447 1091 -987 2397 -540 1306 -989 2392
-997 2413 l-15 37 -1478 0 -1478 0 -32 -77z"/>
<path d="M29956 16973 c-533 -1292 -971 -2356 -974 -2365 -4 -17 71 -18 1481
-18 l1485 0 522 1572 c327 985 519 1577 514 1585 -10 13 -2046 1573 -2054
1573 -3 0 -441 -1056 -974 -2347z"/>
<path d="M36950 18534 c-564 -432 -1026 -789 -1028 -793 -2 -6 325 -997 909
-2758 l131 -393 1490 0 c1415 0 1490 1 1485 18 -4 13 -1723 4171 -1917 4635
-17 42 -35 77 -38 76 -4 0 -468 -353 -1032 -785z"/>
<path d="M7426 12568 c-2 -7 -9 -101 -16 -208 -6 -107 -14 -223 -17 -258 l-6
-63 53 3 52 3 27 90 c47 156 85 213 157 235 21 7 125 14 232 17 l192 5 -2
-794 c-3 -739 -4 -796 -21 -821 -33 -50 -68 -63 -229 -82 l-48 -6 0 -50 0 -49
435 0 435 0 0 49 0 50 -45 5 c-25 3 -66 9 -92 12 -78 9 -127 36 -149 80 -18
37 -19 72 -22 823 l-3 783 198 -4 c232 -5 263 -13 319 -86 31 -41 70 -141 89
-229 7 -35 16 -38 75 -26 l33 6 -8 106 c-4 58 -11 176 -14 261 l-6 155 -33 3
c-26 3 -41 -4 -73 -32 l-39 -36 -663 0 c-645 0 -663 1 -695 20 -18 11 -35 27
-38 35 -7 18 -73 20 -78 3z"/>
<path d="M28362 12383 c-7 -109 -15 -231 -19 -270 l-6 -73 52 0 c33 0 53 5 55
13 95 323 100 327 409 335 l198 5 -3 -795 c-3 -739 -4 -796 -21 -821 -33 -50
-68 -63 -229 -82 l-48 -6 0 -50 0 -49 435 0 435 0 0 49 0 50 -45 5 c-25 3 -66
9 -92 12 -73 9 -129 37 -150 76 -17 31 -18 81 -21 822 l-3 788 198 -3 c187 -4
201 -5 248 -29 74 -37 109 -101 155 -279 l11 -44 46 7 c26 3 48 8 50 10 4 4
-4 160 -23 444 l-6 82 -32 0 c-21 0 -40 -8 -55 -24 -13 -14 -35 -29 -50 -35
-18 -8 -223 -11 -689 -9 l-664 3 -29 33 c-21 24 -37 32 -62 32 l-33 0 -12
-197z"/>
<path d="M37856 12568 c-2 -7 -9 -107 -16 -221 -6 -115 -14 -231 -17 -259 l-6
-49 54 3 53 3 27 92 c31 109 76 192 115 215 44 26 143 38 312 38 l152 0 0
-782 c0 -726 -1 -786 -18 -817 -31 -62 -65 -76 -235 -97 l-48 -5 3 -47 3 -47
433 -3 432 -2 0 49 0 50 -45 5 c-25 3 -66 9 -92 12 -73 8 -128 39 -150 82 -17
35 -18 83 -21 821 l-3 783 198 -4 c231 -4 269 -15 322 -89 28 -38 68 -144 86
-226 7 -35 16 -38 75 -26 l33 6 -8 116 c-4 64 -10 181 -14 261 l-6 145 -33 3
c-26 3 -41 -4 -73 -32 l-39 -36 -661 0 c-708 0 -702 0 -729 50 -12 23 -78 29
-84 8z"/>
<path d="M26325 12534 c-268 -56 -446 -259 -445 -508 1 -148 37 -241 137 -347
76 -80 152 -132 343 -233 302 -161 383 -252 383 -431 0 -95 -12 -144 -53 -208
-83 -132 -303 -178 -466 -97 -117 58 -222 191 -274 352 -14 40 -26 75 -27 77
-1 2 -25 -2 -53 -9 l-51 -12 5 -37 c26 -166 50 -307 62 -363 15 -65 16 -66 63
-87 26 -11 88 -32 137 -47 81 -25 104 -28 249 -28 141 -1 169 2 235 22 219 69
366 209 415 397 8 33 15 96 15 140 0 139 -39 233 -139 339 -73 77 -161 135
-356 235 -315 161 -393 252 -383 449 6 131 54 208 162 264 57 30 203 37 275
13 104 -34 204 -166 242 -319 l12 -48 46 6 c25 3 48 10 52 14 4 4 -4 90 -17
192 -12 102 -23 193 -23 202 -1 12 -20 23 -68 37 -174 51 -342 63 -478 35z"/>
<path d="M33985 12539 c-86 -12 -217 -55 -305 -99 -242 -122 -418 -346 -497
-635 -25 -91 -28 -116 -28 -270 0 -134 4 -186 19 -245 47 -186 122 -324 246
-451 132 -134 264 -211 460 -265 51 -14 103 -18 235 -19 147 0 182 3 259 23
174 47 309 119 428 231 212 199 323 498 305 820 -34 590 -532 994 -1122 910z
m290 -139 c132 -40 265 -139 344 -254 185 -269 232 -738 107 -1071 -116 -306
-399 -462 -701 -385 -378 97 -618 564 -555 1080 42 338 231 586 493 646 82 18
221 11 312 -16z"/>
<path d="M44598 12536 c-20 -6 -41 -16 -47 -21 -5 -6 -157 -378 -336 -828
-201 -501 -341 -839 -363 -872 -39 -59 -99 -99 -167 -110 -89 -14 -85 -11 -85
-65 l0 -50 333 2 332 3 3 47 c3 51 9 48 -98 64 -56 8 -96 28 -111 55 -17 33
-2 99 70 309 l67 195 321 3 320 2 78 -217 c43 -120 80 -237 83 -260 4 -39 2
-43 -29 -62 -18 -11 -54 -23 -79 -27 -80 -10 -80 -10 -80 -65 l0 -49 368 2
367 3 3 47 c3 51 10 47 -93 63 -62 10 -120 49 -153 103 -40 65 -70 144 -308
800 -113 312 -235 650 -272 751 -37 101 -71 185 -77 187 -5 1 -27 -3 -47 -10z
m61 -750 c67 -193 121 -353 121 -358 0 -4 -117 -8 -260 -8 -143 0 -260 3 -260
7 0 23 266 729 271 720 4 -7 61 -169 128 -361z"/>
<path d="M46328 12540 c-183 -31 -353 -144 -420 -280 -99 -200 -71 -417 76
-577 68 -74 143 -126 340 -232 242 -131 305 -182 363 -293 24 -46 27 -65 28
-143 0 -155 -54 -254 -173 -312 -52 -26 -67 -28 -167 -28 -104 0 -114 2 -176
32 -118 58 -233 209 -285 376 l-18 57 -35 -6 c-72 -13 -70 -8 -50 -146 26
-169 57 -318 70 -334 15 -18 163 -70 252 -88 95 -20 260 -20 352 -1 169 36
302 117 391 237 149 202 128 484 -48 660 -75 75 -150 123 -372 239 -206 108
-287 173 -333 267 -25 50 -28 68 -28 152 0 79 4 103 23 142 55 112 153 168
292 168 176 0 271 -78 346 -285 l32 -90 48 3 c26 1 49 4 51 6 4 3 -29 292 -43
378 -6 36 -8 38 -72 58 -145 45 -321 61 -444 40z"/>
<path d="M9334 12496 c-3 -8 -4 -31 -2 -52 l3 -39 71 -6 c138 -13 177 -39 194
-132 7 -37 10 -301 8 -759 -3 -650 -4 -705 -21 -735 -24 -44 -59 -60 -158 -73
-46 -5 -85 -10 -87 -10 -2 0 -2 -21 0 -47 l3 -48 398 -3 397 -2 0 50 c0 27 -1
50 -3 50 -39 0 -177 25 -198 36 -62 32 -64 42 -67 442 l-3 362 501 0 502 0 -4
-357 c-4 -394 -4 -398 -66 -439 -20 -14 -56 -25 -90 -29 -31 -3 -74 -8 -95
-11 l-38 -6 3 -46 3 -47 403 -3 402 -2 0 49 c0 56 7 52 -114 65 -61 7 -94 23
-120 59 -21 28 -21 33 -21 786 0 716 1 758 18 785 24 37 68 54 164 63 l78 8 0
50 0 50 -392 3 -393 2 0 -53 0 -54 77 -7 c88 -7 129 -27 157 -76 19 -32 21
-56 24 -337 l4 -303 -501 0 -502 0 3 308 c3 274 5 311 21 340 23 42 68 62 158
69 l69 6 0 53 0 54 -390 0 c-325 0 -392 -2 -396 -14z"/>
<path d="M11710 12461 l0 -50 38 -6 c124 -18 147 -25 174 -54 16 -18 29 -47
33 -73 3 -24 5 -366 3 -760 -3 -710 -3 -717 -24 -745 -33 -44 -72 -61 -172
-74 l-92 -13 0 -48 0 -48 724 0 724 0 25 108 c39 166 79 363 75 367 -2 2 -27
7 -56 11 -43 5 -52 4 -52 -9 0 -27 -97 -211 -135 -255 -75 -87 -151 -105 -426
-100 -232 4 -258 12 -299 94 -25 49 -25 50 -28 383 l-4 333 229 -4 c276 -5
291 -10 328 -90 13 -29 26 -72 30 -96 l7 -43 51 3 52 3 0 285 0 285 -51 3 -51
3 -12 -58 c-13 -68 -39 -115 -78 -140 -24 -16 -56 -18 -265 -21 l-238 -4 0
344 c0 257 3 349 13 368 l13 25 249 0 c267 0 299 -5 354 -50 32 -27 84 -134
104 -215 l14 -55 47 -3 c33 -2 48 1 52 12 3 8 0 108 -8 223 l-13 208 -667 3
-668 2 0 -49z"/>
<path d="M14240 12456 l0 -53 68 -6 c91 -7 148 -31 170 -71 15 -28 18 -87 23
-571 5 -510 7 -546 28 -645 63 -296 210 -459 479 -532 116 -32 346 -32 457 0
206 59 343 169 429 342 92 189 105 284 116 850 4 250 13 472 18 493 6 20 18
49 27 63 22 34 94 65 166 71 l59 6 0 54 0 53 -362 -2 -363 -3 0 -50 0 -50 70
-8 c135 -14 195 -47 215 -118 34 -115 37 -846 6 -1024 -44 -246 -140 -406
-287 -477 -78 -38 -128 -47 -244 -48 -172 0 -278 42 -379 150 -94 102 -148
249 -166 455 -12 137 -13 815 0 909 14 113 50 144 176 153 l74 6 0 53 0 54
-390 0 -390 0 0 -54z"/>
<path d="M16480 12461 c0 -51 10 -60 66 -61 43 0 126 -32 160 -62 19 -17 47
-52 62 -77 l27 -46 3 -515 c3 -505 -6 -793 -29 -875 -21 -76 -78 -113 -201
-130 l-48 -6 0 -50 0 -49 360 0 360 0 0 50 c0 28 -3 50 -7 50 -47 1 -157 25
-189 40 -97 47 -106 124 -102 846 l3 510 620 -760 620 -761 53 -3 52 -3 0 698
c0 767 8 991 40 1052 29 58 77 82 193 96 l48 6 -3 47 -3 47 -362 3 -363 2 0
-49 0 -50 48 -6 c150 -20 200 -44 228 -111 25 -59 35 -310 32 -783 l-3 -464
-611 729 -610 729 -222 3 -222 2 0 -49z"/>
<path d="M18820 12456 l0 -53 75 -6 c91 -8 137 -26 162 -63 17 -26 18 -71 21
-771 3 -819 5 -793 -59 -832 -18 -11 -58 -23 -88 -26 -114 -13 -111 -11 -111
-66 l0 -49 395 0 395 0 0 50 c0 55 7 51 -114 64 -109 13 -135 46 -148 188 -5
57 -8 391 -6 743 3 617 4 641 23 680 26 52 70 73 168 81 l77 7 0 53 0 54 -395
0 -395 0 0 -54z"/>
<path d="M19864 12496 c-3 -8 -4 -31 -2 -52 3 -38 4 -39 53 -46 120 -17 174
-60 232 -184 42 -93 285 -713 464 -1189 77 -203 148 -390 158 -415 17 -44 18
-45 68 -48 l50 -3 58 153 c167 440 548 1375 611 1500 39 78 84 132 127 155 17
8 63 21 101 27 l71 12 0 50 0 49 -340 0 -340 0 0 -50 c0 -37 4 -50 15 -51 88
-11 164 -29 185 -46 37 -29 33 -70 -25 -239 -104 -308 -430 -1143 -441 -1132
-13 14 -471 1205 -499 1300 -7 23 -10 48 -7 57 10 25 64 46 132 53 l65 6 0 53
0 54 -365 0 c-304 0 -367 -2 -371 -14z"/>
<path d="M22110 12461 l0 -50 38 -6 c124 -18 147 -25 174 -54 16 -18 29 -47
33 -73 3 -24 5 -366 3 -760 -3 -710 -3 -717 -24 -745 -33 -44 -72 -61 -171
-74 l-93 -12 0 -48 0 -49 723 0 724 0 26 108 c36 151 80 363 75 367 -2 2 -27
7 -56 11 -43 5 -52 4 -52 -9 0 -27 -97 -211 -135 -255 -75 -87 -156 -106 -432
-100 -225 4 -252 12 -293 94 -25 49 -25 50 -28 383 l-4 333 229 -4 c195 -3
233 -7 266 -22 44 -22 69 -63 88 -149 l12 -58 51 3 51 3 0 285 0 285 -51 3
-51 3 -12 -58 c-13 -68 -39 -115 -78 -140 -24 -16 -56 -18 -265 -21 l-239 -4
3 362 c3 307 5 362 18 371 9 6 109 9 265 6 262 -3 297 -9 348 -55 28 -25 68
-107 93 -192 l22 -75 46 -3 c32 -2 48 1 52 11 2 7 -1 108 -8 223 l-13 209
-667 3 -668 2 0 -49z"/>
<path d="M23890 12458 l0 -55 75 -6 c85 -8 127 -25 152 -64 17 -25 18 -78 18
-778 0 -698 -1 -752 -18 -782 -24 -44 -59 -60 -158 -73 -46 -5 -85 -10 -86
-10 -2 0 -3 -22 -3 -50 l0 -50 395 0 395 0 0 50 c0 55 9 49 -108 65 -68 9
-109 30 -129 67 -16 29 -18 66 -21 341 l-3 307 80 0 c107 0 170 -15 213 -50
20 -16 72 -92 123 -177 138 -232 234 -371 309 -451 112 -118 195 -155 384
-173 63 -6 116 -9 118 -6 2 2 6 23 10 48 l5 44 -68 30 c-137 60 -291 251 -554
683 l-89 146 77 40 c139 73 243 197 279 331 20 74 18 211 -5 284 -38 123 -111
206 -236 266 -129 63 -168 67 -687 72 l-468 5 0 -54z m835 -82 c125 -33 224
-116 266 -224 19 -48 23 -76 23 -182 0 -156 -19 -212 -101 -300 -97 -105 -204
-140 -430 -140 l-83 0 0 389 c0 234 4 400 10 416 5 14 24 32 42 40 43 18 206
19 273 1z"/>
<path d="M27270 12457 l0 -54 75 -6 c91 -7 143 -30 170 -77 20 -34 20 -50 20
-770 0 -692 -1 -737 -18 -772 -21 -42 -64 -66 -134 -74 -120 -13 -113 -9 -113
-65 l0 -49 398 2 397 3 3 47 3 46 -38 6 c-21 3 -62 8 -90 12 -69 8 -114 39
-131 88 -10 31 -12 199 -10 770 3 818 -1 776 75 809 21 10 72 21 113 25 l75 7
0 50 0 50 -397 3 -398 2 0 -53z"/>
<path d="M30304 12496 c-3 -8 -4 -31 -2 -52 3 -39 3 -39 58 -47 126 -18 169
-60 322 -317 234 -394 377 -652 383 -694 4 -23 5 -161 3 -307 -3 -231 -5 -269
-21 -301 -24 -48 -65 -66 -177 -80 l-90 -11 0 -49 0 -48 425 0 425 0 0 48 0
48 -94 11 c-52 6 -111 19 -131 29 -68 32 -70 42 -73 384 -2 213 0 317 8 345
14 47 116 231 283 510 228 381 248 402 412 429 l70 12 0 50 0 49 -335 0 -335
0 0 -50 0 -50 65 -8 c36 -4 81 -16 100 -25 32 -15 35 -21 34 -57 0 -27 -17
-76 -50 -145 -48 -99 -282 -535 -309 -573 -11 -16 -29 10 -148 210 -303 511
-312 533 -245 566 20 10 59 20 87 24 l51 6 0 53 0 54 -355 0 c-295 0 -357 -2
-361 -14z"/>
<path d="M35420 12461 c0 -56 -9 -51 112 -66 60 -8 110 -41 125 -85 17 -50 17
-1470 0 -1520 -15 -43 -65 -77 -125 -85 -26 -3 -64 -8 -84 -11 l-38 -6 0 -49
0 -49 410 0 410 0 0 50 c0 55 8 51 -125 66 -81 8 -132 36 -153 82 -14 31 -17
89 -20 371 l-4 333 234 -4 c317 -6 340 -16 371 -171 l13 -62 52 -3 52 -3 0
296 0 296 -52 -3 -52 -3 -13 -58 c-17 -78 -37 -113 -76 -134 -28 -16 -66 -18
-279 -21 l-248 -4 0 364 c0 319 2 366 16 387 l16 23 242 -4 c178 -3 251 -8
279 -19 80 -31 131 -107 164 -247 l17 -74 50 7 c28 3 52 7 53 9 1 1 -6 101
-15 221 l-17 220 -658 3 -657 2 0 -49z"/>
<path d="M39780 12460 c0 -27 2 -50 4 -50 3 0 40 -5 83 -11 82 -11 122 -28
142 -61 27 -43 32 -210 29 -856 -3 -634 -4 -658 -23 -696 -27 -53 -72 -74
-184 -88 l-91 -11 0 -49 0 -48 725 0 724 0 12 43 c20 75 89 397 89 416 0 15
-10 20 -45 25 -47 8 -65 3 -65 -17 0 -6 -20 -52 -44 -102 -55 -112 -117 -184
-188 -216 -51 -23 -62 -24 -283 -24 -263 0 -296 7 -338 74 -21 35 -22 44 -25
385 l-3 348 223 -4 c296 -6 313 -13 349 -157 l17 -66 51 -3 51 -3 0 291 0 291
-52 -3 -52 -3 -13 -58 c-33 -146 -43 -151 -340 -155 l-233 -4 0 359 c0 266 3
362 12 371 15 15 405 16 498 1 93 -15 124 -37 164 -122 19 -40 43 -100 52
-134 l17 -63 38 0 c68 0 65 -12 51 218 -7 114 -14 213 -17 220 -3 9 -147 12
-670 12 l-665 0 0 -50z"/>
<path d="M41514 12496 c-3 -8 -4 -31 -2 -52 l3 -39 65 -8 c98 -11 183 -58 243
-132 26 -34 142 -209 257 -389 l208 -329 -121 -181 c-162 -243 -324 -470 -380
-532 -25 -28 -72 -64 -104 -81 -50 -27 -82 -36 -200 -59 -20 -4 -23 -10 -23
-54 l0 -50 345 0 345 0 0 50 c0 28 -1 50 -3 50 -2 0 -30 5 -63 11 -129 23
-134 51 -33 229 81 141 268 444 297 480 l19 23 128 -204 c218 -346 275 -442
275 -466 0 -30 -32 -49 -104 -62 -33 -6 -61 -11 -63 -11 -2 0 -3 -22 -3 -50
l0 -50 395 0 395 0 0 50 c0 49 0 49 -37 55 -130 21 -198 52 -268 122 -45 45
-178 242 -448 659 -64 99 -117 186 -117 193 0 7 59 99 132 204 237 347 307
431 397 476 46 24 151 51 199 51 l32 0 0 55 0 55 -340 0 -340 0 0 -54 0 -53
49 -6 c28 -3 64 -13 80 -22 48 -24 42 -61 -29 -189 -57 -102 -203 -337 -241
-387 l-17 -23 -98 149 c-164 251 -244 387 -244 415 0 32 30 49 102 57 l48 6 0
53 0 54 -365 0 c-304 0 -367 -2 -371 -14z"/>
<path d="M18056 9328 c-3 -29 -10 -136 -16 -238 -6 -102 -14 -200 -17 -217
l-5 -33 55 0 55 0 16 65 c39 157 90 240 163 264 23 8 115 15 236 18 l198 6 -3
-784 c-3 -708 -5 -788 -20 -821 -20 -44 -71 -73 -143 -82 -28 -4 -69 -9 -92
-12 l-43 -5 0 -50 0 -49 433 2 432 3 3 47 3 46 -58 7 c-162 16 -204 34 -235
96 -17 31 -18 91 -18 817 l0 782 157 0 c200 0 273 -12 321 -54 43 -38 85 -124
109 -224 l17 -74 49 6 c28 3 51 7 52 8 2 2 -1 46 -6 98 -4 52 -11 170 -15 263
l-7 167 -35 0 c-25 0 -45 -9 -73 -35 l-39 -35 -660 0 c-477 0 -666 3 -684 12
-14 6 -33 22 -41 35 -11 17 -25 23 -50 23 -33 0 -34 0 -39 -52z"/>
<path d="M32096 9368 c-2 -7 -9 -101 -16 -208 -6 -107 -14 -223 -17 -258 l-6
-63 53 3 52 3 27 90 c47 156 85 213 157 235 21 7 125 14 232 17 l192 5 0 -773
c0 -497 -4 -787 -10 -811 -20 -69 -73 -95 -232 -113 l-58 -6 0 -50 0 -49 435
0 435 0 0 50 c0 28 -3 50 -8 50 -47 0 -186 25 -220 40 -81 36 -77 -10 -80 879
l-3 783 198 -4 c234 -5 269 -15 322 -91 28 -41 70 -153 86 -231 6 -28 7 -28
52 -22 26 3 48 8 51 11 2 2 -1 75 -7 162 -6 87 -11 194 -11 238 0 110 -5 125
-42 125 -21 0 -43 -11 -69 -35 l-39 -35 -671 0 -671 0 -35 35 c-36 36 -90 48
-97 23z"/>
<path d="M17048 9334 l-47 -15 -317 -797 c-174 -438 -332 -827 -352 -865 -19
-37 -50 -80 -68 -97 -32 -27 -116 -60 -155 -60 -40 0 -49 -11 -49 -61 l0 -49
330 0 330 0 0 50 c0 49 0 49 -37 55 -205 33 -208 44 -102 363 l71 212 320 -2
320 -3 39 -105 c92 -250 131 -372 125 -396 -7 -27 -45 -50 -101 -59 -89 -14
-85 -11 -85 -65 l0 -50 365 0 365 0 0 49 c0 48 -1 50 -32 56 -145 27 -186 55
-236 158 -31 62 -151 386 -472 1275 -84 232 -155 422 -159 421 -3 -1 -27 -8
-53 -15z m61 -735 c66 -189 122 -352 126 -361 7 -17 -10 -18 -258 -18 l-266 0
39 108 c66 184 221 606 227 615 3 5 7 7 9 5 2 -2 57 -159 123 -349z"/>
<path d="M21695 9332 l-50 -17 -325 -815 c-179 -448 -336 -834 -348 -857 -47
-90 -104 -126 -235 -148 l-38 -6 3 -47 3 -47 330 0 330 0 3 47 c3 51 7 49 -99
64 -60 8 -107 36 -115 69 -8 34 13 116 84 320 l60 170 319 3 320 2 78 -217
c43 -120 80 -235 83 -256 8 -61 -12 -75 -155 -102 -32 -6 -33 -8 -33 -56 l0
-49 370 0 370 0 0 49 c0 54 5 51 -97 66 -23 4 -61 19 -85 34 -78 50 -78 49
-480 1161 -126 349 -232 638 -236 642 -4 3 -29 -1 -57 -10z m64 -746 c67 -192
121 -352 121 -357 0 -5 -117 -9 -261 -9 l-260 0 7 23 c3 12 56 157 116 322 61
165 117 319 125 343 9 24 19 40 23 35 5 -4 63 -165 129 -357z"/>
<path d="M30845 9339 c-108 -14 -254 -54 -352 -96 -303 -131 -498 -367 -570
-688 -21 -96 -22 -336 0 -430 55 -245 192 -454 381 -585 121 -82 293 -148 464
-176 161 -27 404 -15 617 30 249 52 271 59 266 82 -2 10 -6 152 -8 315 -4 262
-3 300 12 329 18 35 56 54 128 64 l47 7 0 50 0 49 -385 0 -385 0 0 -49 0 -48
104 -12 c114 -14 159 -31 190 -74 20 -27 21 -42 21 -260 0 -265 -3 -277 -78
-321 -77 -45 -156 -59 -307 -53 -225 8 -358 64 -510 217 -127 128 -201 270
-242 470 -27 128 -21 374 12 494 43 159 114 281 222 381 112 104 233 161 388
186 94 14 276 6 350 -16 172 -52 289 -187 340 -391 l10 -41 47 8 c25 5 47 10
49 12 3 3 -44 469 -48 472 -6 4 -254 55 -318 65 -91 15 -361 21 -445 9z"/>
<path d="M34856 9339 c-216 -32 -404 -125 -552 -275 -129 -130 -209 -275 -262
-473 -21 -83 -25 -118 -26 -256 0 -134 3 -174 22 -248 89 -353 320 -597 667
-703 85 -26 101 -28 275 -28 158 0 196 3 262 21 294 82 507 257 629 518 22 47
52 130 66 183 24 88 27 115 27 282 1 218 -14 289 -93 455 -179 375 -588 586
-1015 524z m259 -132 c320 -87 518 -393 541 -837 21 -403 -117 -721 -366 -842
-222 -108 -480 -64 -676 114 -244 224 -354 684 -254 1073 83 325 328 527 620
510 47 -3 108 -11 135 -18z"/>
<path d="M22910 9256 l0 -53 71 -6 c38 -3 87 -14 107 -24 70 -34 67 5 67 -823
0 -693 -1 -747 -18 -777 -24 -44 -59 -60 -158 -73 -46 -5 -85 -10 -86 -10 -2
0 -3 -22 -3 -50 l0 -50 395 0 395 0 0 50 c0 28 -2 50 -4 50 -36 0 -167 25
-188 36 -60 31 -63 48 -66 388 l-3 309 108 -5 c123 -5 174 -24 216 -80 14 -18
71 -109 127 -203 280 -464 380 -548 686 -570 l91 -6 7 32 c11 56 8 64 -31 78
-138 49 -287 219 -517 591 -57 91 -115 185 -129 210 l-26 45 77 40 c91 47 197
147 235 220 47 93 60 159 55 269 -8 164 -66 273 -188 355 -141 93 -272 111
-837 111 l-383 0 0 -54z m822 -77 c192 -41 308 -194 308 -408 0 -137 -40 -240
-127 -322 -93 -88 -193 -118 -400 -119 l-93 0 0 393 c0 431 1 433 60 454 45
15 184 16 252 2z"/>
<path d="M24830 9256 l0 -53 75 -6 c91 -8 137 -26 162 -63 17 -27 18 -69 18
-779 0 -698 -1 -752 -18 -782 -24 -44 -59 -60 -158 -73 -46 -5 -85 -10 -86
-10 -2 0 -3 -23 -3 -50 l0 -50 677 2 677 3 18 70 c32 128 91 396 87 399 -2 2
-26 7 -54 10 l-50 7 -29 -73 c-65 -160 -142 -253 -233 -279 -33 -10 -106 -14
-238 -14 -178 0 -193 1 -237 23 -88 43 -83 -5 -83 822 0 711 0 726 20 760 30
51 70 69 164 77 l81 6 0 53 0 54 -395 0 -395 0 0 -54z"/>
<path d="M26510 9257 l0 -54 77 -7 c92 -7 141 -29 168 -76 20 -34 20 -50 20
-755 0 -396 -3 -736 -8 -756 -15 -71 -60 -96 -209 -114 l-48 -6 0 -50 0 -49
398 2 397 3 3 46 3 47 -53 6 c-110 14 -128 18 -160 40 -60 40 -59 27 -56 830
3 671 4 734 20 763 22 39 78 62 174 71 l69 7 0 50 0 50 -397 3 -398 2 0 -53z"/>
<path d="M27560 9260 c0 -44 3 -50 23 -54 12 -2 49 -9 82 -15 99 -18 184 -95
205 -187 13 -53 12 -1023 0 -1204 -17 -241 -45 -280 -222 -305 l-48 -6 0 -50
0 -49 360 0 360 0 0 50 c0 28 -3 50 -7 50 -47 1 -157 25 -189 40 -96 47 -106
129 -102 855 l3 501 620 -761 620 -760 53 -3 52 -3 0 703 c0 985 7 1061 98
1107 32 16 136 41 175 41 4 0 7 21 5 48 l-3 47 -362 3 -363 2 0 -49 c0 -55 -3
-53 110 -66 62 -7 124 -37 152 -75 35 -48 40 -123 45 -705 4 -513 3 -568 -11
-555 -8 8 -285 337 -614 730 l-598 715 -222 3 -222 2 0 -50z"/>
<path d="M36220 9261 c0 -53 8 -61 59 -61 86 0 183 -58 233 -138 l23 -37 3
-545 c3 -527 -5 -779 -28 -862 -19 -68 -82 -106 -202 -123 l-48 -6 0 -50 0
-49 360 0 360 0 0 49 0 50 -47 6 c-137 18 -192 46 -220 113 -24 59 -34 295
-31 793 l3 487 623 -764 623 -764 49 0 50 0 0 653 c0 770 10 1030 40 1092 25
52 74 80 160 94 36 6 69 11 73 11 4 0 7 21 5 48 l-3 47 -362 3 -363 2 0 -49
c0 -49 1 -50 33 -55 164 -23 189 -33 230 -88 11 -14 24 -45 29 -69 6 -25 12
-293 15 -624 4 -574 4 -580 -15 -560 -11 11 -275 326 -587 700 -312 374 -582
695 -598 713 l-31 32 -218 0 -218 0 0 -49z"/>
</g>
</svg>
